<svg xmlns="http://www.w3.org/2000/svg" viewBox="0 0 333.462 81.335"><defs><style>.a{fill:#FFA759;}</style></defs><g transform="translate(-138.462 -287.426)"><path class="a" d="M467.238,383.233h.014a1.5,1.5,0,0,0,1.5-1.5.693.693,0,0,0,0-.086c0-1.122-.676-1.658-2.066-1.658h-2.243v5.874h.845v-2.561h1.037l.022.031,1.611,2.529h.9l-1.73-2.618Zm-.979-.588h-.979V380.66h1.243c.639,0,1.369.1,1.369.944,0,.965-.737,1.042-1.636,1.042M138.462,319.008h12.457v45.375H173.98v11.5H138.462Zm41.026,18.311h11.967v38.539H179.488Zm5.983-19.16a6.942,6.942,0,1,1-6.943,6.942,6.975,6.975,0,0,1,6.943-6.942h0m56.043.84h11.967v33.987L267.044,337.3h14.672L266.01,355.143l15.376,20.73H266.345l-12.7-19.05h-.157v19.048H241.517ZM198.09,337.323h11.492v5.267h.163a12.587,12.587,0,0,1,11.331-6.225c12.135,0,14.369,7.984,14.369,18.357v21.134H223.479V357.118c0-4.473-.082-10.222-6.233-10.222-6.22,0-7.18,4.87-7.18,9.9V375.85H198.1Z" transform="translate(0 -19.631)"/><path class="a" d="M555.664,332.475c0-.056,0-.113,0-.169a7.209,7.209,0,0,0-7.175-7.175l-.174,0a8.022,8.022,0,0,0-8.456,7.342ZM565.8,349.552a21.091,21.091,0,0,1-16.365,7.668c-11.967,0-21.548-7.988-21.548-20.358s9.58-20.354,21.548-20.354c11.185,0,18.2,7.978,18.2,20.354v3.752H539.86a8.97,8.97,0,0,0,9.019,7.5,10.223,10.223,0,0,0,8.54-4.71ZM592.58,327c-5.983,0-9.573,4-9.573,9.817s3.589,9.82,9.573,9.82,9.583-3.989,9.583-9.82S598.571,327,592.58,327m20.6,29.216H602.162v-5.111H602a15.058,15.058,0,0,1-11.9,6.068c-11.5,0-19.073-8.3-19.073-20.034,0-10.778,6.7-20.674,17.721-20.674,4.953,0,9.579,1.355,12.293,5.111h.157V299.364h11.978Zm80.789.022H682V337.5c0-4.469-.08-10.222-6.224-10.222-6.233,0-7.187,4.869-7.187,9.9V356.24H656.624V317.7h11.488v5.267h.161a12.605,12.605,0,0,1,11.335-6.225c12.129,0,14.365,7.978,14.365,18.357Zm-50.847-43.808h0a6.944,6.944,0,1,1,6.945-6.946h0a6.977,6.977,0,0,1-6.943,6.944m5.983,43.808H637.125V317.7H649.1Zm50.83-68.811H631.111a5.922,5.922,0,0,0-5.96,5.821v69.109a5.925,5.925,0,0,0,5.96,5.828h68.823a5.935,5.935,0,0,0,5.982-5.828V293.248a5.932,5.932,0,0,0-5.982-5.822m15.176,70.32a5.507,5.507,0,1,0,.1,0h-.1m0,10.384h-.083a4.829,4.829,0,1,1,4.83-4.91v.081a4.748,4.748,0,0,1-4.62,4.825h-.126" transform="translate(-248.746)"/></g></svg>