<svg xmlns="http://www.w3.org/2000/svg" viewBox="0 0 30 30">
  <path id="python" d="M16.674,2C11,2,9.826,4.93,9.826,6.627v3.2h6.522v.652H6.627C4.474,10.478,2,12.175,2,17s2.474,6.522,4.627,6.522h3.852V19.609A2.616,2.616,0,0,1,13.087,17h7.826a1.922,1.922,0,0,0,1.957-1.957V6.627C22.87,4.344,20.717,2,16.674,2ZM13.739,5.261a1.3,1.3,0,1,1-1.3,1.3A1.306,1.306,0,0,1,13.739,5.261Zm9.783,5.217v4.565a2.616,2.616,0,0,1-2.609,2.609H13.087a1.922,1.922,0,0,0-1.957,1.957v7.765c0,2.283,2.152,4.627,6.2,4.627,5.674,0,6.848-2.93,6.848-4.627v-3.2H17.652v-.652h9.721C29.526,23.522,32,21.825,32,17s-2.474-6.522-4.627-6.522ZM20.261,26.13a1.3,1.3,0,1,1-1.3,1.3A1.306,1.306,0,0,1,20.261,26.13Z" transform="translate(-2 -2)" fill="#77ffc0"/>
</svg>
