<svg xmlns="http://www.w3.org/2000/svg" viewBox="0 0 92 144.015">
  <g id="ME-ORANGE" transform="translate(0 0.015)">
    <g id="Ellipse_7" data-name="Ellipse 7" transform="translate(12)" fill="#fff" stroke="#707070" stroke-width="1">
      <ellipse cx="33.5" cy="33" rx="33.5" ry="33" stroke="none"/>
      <ellipse cx="33.5" cy="33" rx="33" ry="32.5" fill="none"/>
    </g>
    <g id="Rectangle_13" data-name="Rectangle 13" transform="translate(0 68)" fill="#ffb16d" stroke="#707070" stroke-width="1">
      <path d="M30,0H62A30,30,0,0,1,92,30V76a0,0,0,0,1,0,0H0a0,0,0,0,1,0,0V30A30,30,0,0,1,30,0Z" stroke="none"/>
      <path d="M30,.5H62A29.5,29.5,0,0,1,91.5,30V75a.5.5,0,0,1-.5.5H1A.5.5,0,0,1,.5,75V30A29.5,29.5,0,0,1,30,.5Z" fill="none"/>
    </g>
    <line id="Line_3" data-name="Line 3" x2="66" transform="translate(12.5 33.5)" fill="none" stroke="#707070" stroke-width="1"/>
    <g id="Ellipse_8" data-name="Ellipse 8" transform="translate(20 24)" fill="#707070" stroke="#707070" stroke-width="1">
      <ellipse cx="12" cy="9.5" rx="12" ry="9.5" stroke="none"/>
      <ellipse cx="12" cy="9.5" rx="11.5" ry="9" fill="none"/>
    </g>
    <g id="Ellipse_9" data-name="Ellipse 9" transform="translate(50 24)" fill="#707070" stroke="#707070" stroke-width="1">
      <ellipse cx="12" cy="9.5" rx="12" ry="9.5" stroke="none"/>
      <ellipse cx="12" cy="9.5" rx="11.5" ry="9" fill="none"/>
    </g>
    <g id="Rectangle_14" data-name="Rectangle 14" transform="translate(13 87)" fill="#707070" stroke="#707070" stroke-width="1">
      <path d="M1.75,0h0A1.75,1.75,0,0,1,3.5,1.75V57a0,0,0,0,1,0,0H0a0,0,0,0,1,0,0V1.75A1.75,1.75,0,0,1,1.75,0Z" stroke="none"/>
      <path d="M1.75.5h0A1.25,1.25,0,0,1,3,1.75V56.434a.066.066,0,0,1-.066.066H.566A.066.066,0,0,1,.5,56.434V1.75A1.25,1.25,0,0,1,1.75.5Z" fill="none"/>
    </g>
    <g id="Rectangle_15" data-name="Rectangle 15" transform="translate(78 87)" fill="#707070" stroke="#707070" stroke-width="1">
      <path d="M1.75,0h0A1.75,1.75,0,0,1,3.5,1.75V57a0,0,0,0,1,0,0H0a0,0,0,0,1,0,0V1.75A1.75,1.75,0,0,1,1.75,0Z" stroke="none"/>
      <path d="M1.75.5h0A1.25,1.25,0,0,1,3,1.75V56.434a.066.066,0,0,1-.066.066H.566A.066.066,0,0,1,.5,56.434V1.75A1.25,1.25,0,0,1,1.75.5Z" fill="none"/>
    </g>
    <path id="Path_3" data-name="Path 3" d="M-337.43,338.254h51.939a34.892,34.892,0,0,0-11.048-9.283c-6.5-3.184-14.96-3.452-14.96-3.452a31.671,31.671,0,0,0-13.733,2.839C-331.714,331.541-337.43,338.254-337.43,338.254Z" transform="translate(357 -325)" fill="#707070" stroke="#707070" stroke-width="1"/>
  </g>
</svg>
