<svg id="PORTFOLIO-ORANGE-OUTLINE" xmlns="http://www.w3.org/2000/svg" width="138" height="116" viewBox="0 0 138 116">
  <g id="Rectangle_28" data-name="Rectangle 28" transform="translate(0 15)" fill="rgba(255,255,255,0)" stroke="#ffb16d" stroke-width="1">
    <rect width="138" height="101" stroke="none"/>
    <rect x="0.5" y="0.5" width="137" height="100" fill="none"/>
  </g>
  <g id="Rectangle_29" data-name="Rectangle 29" transform="translate(39)" fill="rgba(255,255,255,0)" stroke="#ffb16d" stroke-width="1">
    <path d="M16,0H45A16,16,0,0,1,61,16v0a0,0,0,0,1,0,0H0a0,0,0,0,1,0,0v0A16,16,0,0,1,16,0Z" stroke="none"/>
    <path d="M15.125.5h30.75A14.625,14.625,0,0,1,60.5,15.125v0a.375.375,0,0,1-.375.375H.875A.375.375,0,0,1,.5,15.125v0A14.625,14.625,0,0,1,15.125.5Z" fill="none"/>
  </g>
  <g id="Rectangle_30" data-name="Rectangle 30" transform="translate(49 5)" fill="rgba(255,255,255,0)" stroke="#ffb16d" stroke-width="1">
    <path d="M11,0H31A11,11,0,0,1,42,11v0a0,0,0,0,1,0,0H0a0,0,0,0,1,0,0v0A11,11,0,0,1,11,0Z" stroke="none"/>
    <path d="M10.25.5h21.5a9.75,9.75,0,0,1,9.75,9.75v0a.25.25,0,0,1-.25.25H.75a.25.25,0,0,1-.25-.25v0A9.75,9.75,0,0,1,10.25.5Z" fill="none"/>
  </g>
  <path id="Path_20" data-name="Path 20" d="M-667,822.84l67.318,19.252,41.3-11.369,28.633-7.882" transform="translate(667.361 -761.969)" fill="rgba(255,255,255,0)" stroke="#ffb16d" stroke-width="1"/>
</svg>
