<?xml version="1.0" encoding="utf-8"?>
<!-- Generator: Adobe Illustrator 25.2.3, SVG Export Plug-In . SVG Version: 6.00 Build 0)  -->
<svg version="1.1" id="Layer_1" xmlns="http://www.w3.org/2000/svg" xmlns:xlink="http://www.w3.org/1999/xlink" x="0px" y="0px"
	 viewBox="0 0 150 150" style="enable-background:new 0 0 150 150;" xml:space="preserve">
<style type="text/css">
	.st0{fill:#24243E;}
	.st1{fill:#52D87F;}
	.st2{fill:#FFFFFF;}
</style>
<g>
	<path class="st1" d="M123.85,31.4h-17.63c-10.48,0-20.49,4.31-27.7,11.91L75,47.03l-3.52-3.72c-7.21-7.61-17.22-11.91-27.7-11.91
		H26.15c-3.37,0-6.1,2.73-6.1,6.1v64.31c0,3.37,2.73,6.1,6.1,6.1h21.09c7.38,0,14.61,2.14,20.79,6.16L75,118.6l6.97-4.53
		c6.19-4.02,13.41-6.16,20.79-6.16h21.09c3.37,0,6.1-2.73,6.1-6.1V37.5C129.95,34.13,127.22,31.4,123.85,31.4z"/>
	<g>
		<path class="st2" d="M106.15,43.75c-6.17,0-11.19,5.02-11.19,11.19c0,6.17,5.02,11.19,11.19,11.19c6.17,0,11.2-5.02,11.2-11.19
			C117.35,48.77,112.33,43.75,106.15,43.75z M106.15,62.5c-4.17,0-7.56-3.39-7.56-7.56c0-4.17,3.39-7.56,7.56-7.56
			c4.17,0,7.56,3.39,7.56,7.56C113.71,59.11,110.32,62.5,106.15,62.5z"/>
		<path class="st2" d="M91.08,66.22H78.23c-1,0-1.82,0.81-1.82,1.82s0.81,1.82,1.82,1.82h8.8C74.65,81.7,58.26,82.83,53.08,82.88
			c-0.56-5.66-5.34-10.09-11.14-10.09c-6.17,0-11.19,5.02-11.19,11.2c0,6.17,5.02,11.19,11.19,11.19c5.3,0,9.73-3.7,10.89-8.65
			c0.08,0,0.15,0,0.25,0c5.67,0,22.8-1.15,36.18-13.78v8.13c0,1,0.81,1.82,1.82,1.82c1,0,1.82-0.81,1.82-1.82V68.04
			C92.9,67.04,92.08,66.22,91.08,66.22z M41.94,91.53c-4.17,0-7.56-3.39-7.56-7.56c0-4.17,3.39-7.56,7.56-7.56
			c4.17,0,7.56,3.39,7.56,7.56C49.5,88.14,46.11,91.53,41.94,91.53z"/>
	</g>
</g>
</svg>
