<?xml version="1.0" encoding="utf-8"?>
<!-- Generator: Adobe Illustrator 19.0.0, SVG Export Plug-In . SVG Version: 6.00 Build 0)  -->
<svg version="1.1" id="Layer_1" xmlns="http://www.w3.org/2000/svg" xmlns:xlink="http://www.w3.org/1999/xlink" x="0px" y="0px"
	 viewBox="0 0 500 500" style="enable-background:new 0 0 500 500;" xml:space="preserve">
<style type="text/css">
	.st0{fill:#0078D6;}
</style>
<g id="XMLID_1_">
	<path id="XMLID_3_" class="st0" d="M98.2,221.7c12.1-1.9,24.2-3.6,36.3-5.3c0,10.6,0,21.2,0,31.9c-12.1,0-24.2,0.2-36.3,0.3
		C98.2,239.6,98.2,230.6,98.2,221.7L98.2,221.7z"/>
	<path id="XMLID_4_" class="st0" d="M67.5,226c9.1-1.4,18.3-2.6,27.4-3.8c0,8.8,0,17.6,0,26.4c-9.1,0-18.3,0.1-27.4,0.1V226z"/>
	<path id="XMLID_5_" class="st0" d="M212.2,227.4c2.4-1.5,5.5,1.7,4.1,4.1c-0.7,1.8-3.1,2.4-4.5,1.1
		C209.9,231.4,210.2,228.3,212.2,227.4z"/>
	<path id="XMLID_8_" class="st0" d="M274.9,227.1c1.5,0,3.1,0,4.6,0c0,14.3,0,28.7,0,43c-1.5,0-3.1,0-4.6,0c0-1.6,0-3.1-0.1-4.7
		c-3.3,6-12.2,7.3-17.3,2.9c-3.6-3.1-4.7-8.2-4.5-12.8c0-4.7,1.6-9.6,5.3-12.7c4.8-4,13.4-3.7,16.7,2.1
		C274.9,239,275,233,274.9,227.1 M265,244.1c-3.7,0.6-6.2,3.9-6.9,7.4c-0.9,4.2-0.7,9,1.9,12.6c2.9,3.8,9.2,3.9,12.2,0.3
		c2.1-2.2,2.7-5.3,2.7-8.2c0-3.1,0.3-6.5-1.8-9.1C271.4,244.6,268,243.5,265,244.1z"/>
	<path id="XMLID_9_" class="st0" d="M399.4,228.8c0.4-0.1,1.2-0.2,1.6-0.2c0,13.9,0,27.7,0,41.6c-1.5,0-3,0-4.5,0
		c0-11.5-0.1-23.1,0.1-34.6c-2.9,2-6,3.7-9.4,4.7c0-1.5,0-3.1,0.1-4.6C391.6,234.1,395.7,231.6,399.4,228.8z"/>
	<path id="XMLID_12_" class="st0" d="M417.8,228.7c4-0.7,8.4,0.8,10.8,4.2c3.4,4.8,3.7,10.9,3.9,16.5c-0.1,5.9-0.8,12.4-4.6,17.2
		c-3.5,4.6-10.7,5.7-15.3,2.3c-3.8-2.7-5.3-7.5-6-12c-0.8-6.6-0.7-13.5,1.6-19.8C409.7,233,413.2,229.3,417.8,228.7 M417.1,232.9
		c-4.1,1.7-5.3,6.5-5.8,10.4c-0.6,5.5-0.7,11.1,0.6,16.5c0.7,2.7,2,5.5,4.7,6.6c3,1.5,7,0.2,8.6-2.7c2.5-4.3,2.6-9.5,2.6-14.4
		c-0.1-4.8-0.3-9.9-2.9-14C423.2,232.8,419.9,231.8,417.1,232.9z"/>
	<path id="XMLID_13_" class="st0" d="M155,229.4c1.7,0,3.5,0,5.2,0c2.7,9.7,5.4,19.5,8.1,29.2c0.6,2,1,4.1,1.3,6.3
		c2.8-12,6.6-23.7,9.9-35.5c1.5,0,3,0,4.5,0c2.4,8.4,4.6,16.9,6.9,25.4c0.9,3.4,2,6.7,2.3,10.2c2.5-11.9,6.2-23.6,9-35.5
		c1.7,0,3.4,0,5.1,0c-3.7,13.6-7.6,27.1-11.3,40.7c-1.8,0-3.7,0-5.5,0c-2.7-9.7-5.4-19.5-8.2-29.2c-0.5-1.6-0.7-3.2-0.8-4.8
		c-0.2,1.4-0.4,2.8-0.8,4.2c-2.8,9.9-5.6,19.8-8.3,29.8c-1.8,0.1-3.7,0.1-5.5,0.1C162.9,256.5,158.9,243,155,229.4L155,229.4z"/>
	<path id="XMLID_14_" class="st0" d="M228,245.6c2.6-4.7,8.8-6.8,13.7-4.7c3.9,1.5,5.4,6.1,5.5,10c0.2,6.4,0,12.8,0.1,19.2
		c-1.5,0-3.1,0-4.6,0c-0.1-6.1,0.2-12.3-0.1-18.4c-0.1-3-1.4-6.7-4.7-7.5c-4.8-1.5-9.7,2.9-9.8,7.7c-0.1,6.1,0,12.2-0.1,18.2
		c-1.5,0-3.1,0-4.6,0c0-9.7,0-19.5,0-29.2c1.5,0,3.1,0,4.6,0C228.1,242.5,228.1,244.1,228,245.6z"/>
	<path id="XMLID_17_" class="st0" d="M297.5,240.2c4.1-0.4,8.7,0.3,11.7,3.3c3.5,3.2,4.5,8.2,4.3,12.8c-0.1,4.1-1.6,8.3-4.6,11.1
		c-6.3,5.7-17.9,4.5-21.9-3.4c-3.1-6.6-2.5-15.7,3.2-20.7C292.3,241.6,294.9,240.8,297.5,240.2 M296.6,244.4
		c-6.8,2.1-7.9,10.9-5.8,16.7c1.7,5.2,8.2,7.4,12.9,5c3.2-1.5,4.6-5.1,4.9-8.4c0.3-3.8,0-8.2-2.7-11.2
		C303.7,244,299.8,243.4,296.6,244.4z"/>
	<path id="XMLID_18_" class="st0" d="M367.3,240.2c2.9-0.2,5.8,0.1,8.5,1.1c0.8,1.4,0.2,3.3,0.3,4.9c-3.2-2-7.7-3.3-11.2-1.3
		c-2.4,1.3-2.5,5.2-0.2,6.6c3.4,2.2,7.6,2.7,10.6,5.5c3.3,3.2,2.5,9.2-1.4,11.6c-4.7,3-10.8,2.7-15.7,0.4c0-1.7,0-3.4,0-5.2
		c3.5,2.7,8.4,4.1,12.6,2.2c2.4-1.2,2.6-5,0.4-6.5c-3.4-2.5-8-2.9-10.9-6c-2.9-3-2.4-8.4,0.9-10.9
		C362.9,241.3,365.2,240.8,367.3,240.2z"/>
	<path id="XMLID_19_" class="st0" d="M211.2,240.9c1.5,0,3.1,0,4.6,0c0,9.7,0,19.5,0,29.2c-1.5,0-3.1,0-4.6,0
		C211.2,260.4,211.2,250.7,211.2,240.9z"/>
	<path id="XMLID_20_" class="st0" d="M315.5,240.9c1.6,0,3.2,0,4.8,0c1.9,6.9,3.7,13.9,5.7,20.9c0.4,1.3,0.5,2.7,0.7,4
		c2.2-8.4,4.9-16.6,7.4-24.9c1.4,0,2.8,0,4.2,0c2.1,8.3,4.7,16.5,6.5,24.8c1.8-8.3,4.4-16.5,6.4-24.8c1.5-0.1,3.1-0.1,4.6-0.1
		c-2.9,9.7-5.7,19.5-8.7,29.2c-1.6,0-3.2,0-4.8,0c-2.1-7.9-4.8-15.7-6.4-23.7c-2,8-4.8,15.8-7.1,23.7c-1.5,0-3.1,0-4.6,0
		C321.3,260.4,318.3,250.7,315.5,240.9z"/>
	<path id="XMLID_21_" class="st0" d="M67.5,251.5c9.1,0,18.3,0.1,27.4,0.1c0,8.8,0,17.7,0,26.5c-9.1-1.4-18.3-2.5-27.4-3.8V251.5z"
		/>
	<path id="XMLID_22_" class="st0" d="M98.2,251.8c12.1,0,24.3,0,36.4,0c0,10.6,0,21.2,0,31.8c-12.1-1.8-24.2-3.5-36.3-5.1
		C98.2,269.6,98.2,260.7,98.2,251.8z"/>
</g>
</svg>
